Coordinates
version=1
nRows=8
nColumns=40
inDegrees=yes

Units are S.I. units (second, meters, Newtons, ...)
If the header above contains a line with 'inDegrees', this indicates whether rotational values are in degrees (yes) or radians (no).

endheader
time	pelvis_tilt	pelvis_list	pelvis_rotation	pelvis_tx	pelvis_ty	pelvis_tz	hip_flexion_r	hip_adduction_r	hip_rotation_r	knee_angle_r	knee_angle_r_beta	ankle_angle_r	subtalar_angle_r	mtp_angle_r	hip_flexion_l	hip_adduction_l	hip_rotation_l	knee_angle_l	knee_angle_l_beta	ankle_angle_l	subtalar_angle_l	mtp_angle_l	lumbar_extension	lumbar_bending	lumbar_rotation	arm_flex_r	arm_add_r	arm_rot_r	elbow_flex_r	pro_sup_r	wrist_flex_r	wrist_dev_r	arm_flex_l	arm_add_l	arm_rot_l	elbow_flex_l	pro_sup_l	wrist_flex_l	wrist_dev_l
      2.57500000	     -6.38070698	     29.49295663	    -87.94340501	      1.21806804	      0.61458940	      0.11224780	     95.35416298	     -7.16875045	     -6.12403629	     95.14321125	      1.66056230	     22.55364605	    -20.69076095	      0.00000000	     97.69867292	    -10.68586238	      4.35015684	     98.43952495	      1.71809382	     26.90399764	    -12.15081432	      0.00000000	    -26.08015681	      7.51340751	      0.70363553	     44.99992434	    -14.99999999	     44.99992434	     75.00017585	     45.00000026	      0.00000000	      0.00000000	     44.99992434	    -14.99999999	     44.99992434	     75.00017585	     45.00000026	      0.00000000	      0.00000000
      2.58000000	     -6.35854384	     29.50743378	    -87.93402304	      1.21813560	      0.61435506	      0.11225963	     95.39967826	     -7.19934577	     -6.09311982	     95.18548667	      1.66130014	     22.57079728	    -20.67503842	      0.00000000	     97.73135235	    -10.67372481	      4.31773823	     98.47094949	      1.71864229	     26.91395391	    -12.13567871	      0.00000000	    -25.97893804	      7.55904887	      0.76545430	     44.99992434	    -14.99999999	     44.99992434	     75.00017585	     45.00000026	      0.00000000	      0.00000000	     44.99992434	    -14.99999999	     44.99992434	     75.00017585	     45.00000026	      0.00000000	      0.00000000
      2.58500000	     -6.37412522	     29.50273677	    -87.92126593	      1.21815010	      0.61419440	      0.11228986	     95.40752952	     -7.20734364	     -6.10772403	     95.21544812	      1.66182307	     22.58254676	    -20.68496634	      0.00000000	     97.75154158	    -10.69366855	      4.31830364	     98.50227311	      1.71918899	     26.93344345	    -12.06768145	      0.00000000	    -25.89715268	      7.50771279	      0.61938742	     44.99992434	    -14.99999999	     44.99992434	     75.00017585	     45.00000026	      0.00000000	      0.00000000	     44.99992434	    -14.99999999	     44.99992434	     75.00017585	     45.00000026	      0.00000000	      0.00000000
      2.59000000	     -6.32986964	     29.50710848	    -87.92411556	      1.21818101	      0.61400832	      0.11230210	     95.44570067	     -7.23337018	     -6.05798073	     95.25722334	      1.66255218	     22.60006408	    -20.66744689	      0.00000000	     97.76296065	    -10.68617895	      4.26176859	     98.52753501	      1.71962989	     26.93463073	    -12.09594088	      0.00000000	    -25.81961287	      7.59150467	      0.80745813	     44.99992434	    -14.99999999	     44.99992434	     75.00017585	     45.00000026	      0.00000000	      0.00000000	     44.99992434	    -14.99999999	     44.99992434	     75.00017585	     45.00000026	      0.00000000	      0.00000000
      2.59500000	     -6.56748102	     29.48839268	    -87.62403767	      1.21887258	      0.61387266	      0.11236619	     95.37400392	     -7.49436081	     -6.27765457	     95.28323190	      1.66300612	     22.64113183	    -20.62920309	      0.00000000	     97.82903911	    -10.43220472	      4.46208933	     98.54708055	      1.71997102	     26.85003784	    -12.28146531	      0.00000000	    -25.74498215	      7.81896075	      0.41654513	     44.99992434	    -14.99999999	     44.99992434	     75.00017585	     45.00000026	      0.00000000	      0.00000000	     44.99992434	    -14.99999999	     44.99992434	     75.00017585	     45.00000026	      0.00000000	      0.00000000
      2.60000000	     -6.47965194	     29.55473512	    -87.75968876	      1.21851044	      0.61353709	      0.11229795	     95.50846843	     -7.36039642	     -6.19061090	     95.31181506	      1.66350499	     22.54444083	    -20.79155340	      0.00000000	     97.91449129	    -10.57774956	      4.38787025	     98.58788069	      1.72068312	     26.86430986	    -12.16694937	      0.00000000	    -25.55503552	      7.57098823	      0.31539740	     44.99992434	    -14.99999999	     44.99992434	     75.00017585	     45.00000026	      0.00000000	      0.00000000	     44.99992434	    -14.99999999	     44.99992434	     75.00017585	     45.00000026	      0.00000000	      0.00000000
      2.60500000	     -6.29929378	     29.51358744	    -87.88501724	      1.21827963	      0.61352997	      0.11233945	     95.51405361	     -7.30616022	     -6.01203072	     95.35329369	      1.66422893	     22.64944286	    -20.63759691	      0.00000000	     97.81467335	    -10.67234878	      4.19775924	     98.59175429	      1.72075073	     26.96673351	    -11.98909346	      0.00000000	    -25.56280043	      7.38390734	      0.37194077	     44.99992434	    -14.99999999	     44.99992434	     75.00017585	     45.00000026	      0.00000000	      0.00000000	     44.99992434	    -14.99999999	     44.99992434	     75.00017585	     45.00000026	      0.00000000	      0.00000000
      2.61000000	     -6.37177975	     29.58396482	    -87.80244344	      1.21840807	      0.61315798	      0.11228029	     95.61221707	     -7.35826512	     -6.06172154	     95.39078355	      1.66488325	     22.62783779	    -20.72450786	      0.00000000	     97.94616688	    -10.61248287	      4.26481105	     98.62008552	      1.72124520	     26.96204261	    -11.96633891	      0.00000000	    -25.38435711	      7.41916689	      0.20020862	     44.99992434	    -14.99999999	     44.99992434	     75.00017585	     45.00000026	      0.00000000	      0.00000000	     44.99992434	    -14.99999999	     44.99992434	     75.00017585	     45.00000026	      0.00000000	      0.00000000
